<?xml version="1.0" encoding="UTF-8" standalone="no"?>
<!-- Uploaded to: SVG Repo, www.svgrepo.com, Generator: SVG Repo Mixer Tools -->
<svg 
   viewBox="0 0 600 600"
   version="1.1"
   id="svg9724"
   sodipodiDocname="settings2.svg"
   inkscapeVersion="1.2.2 (1:1.2.2+202212051550+b0a8486541)"
   width="600"
   height="600"
   xmlnsInkscape="http://www.inkscape.org/namespaces/inkscape"
   xmlnsSodipodi="http://sodipodi.sourceforge.net/DTD/sodipodi-0.dtd"
   xmlns="http://www.w3.org/2000/svg"
   xmlnsSvg="http://www.w3.org/2000/svg">
  <defs
     id="defs9728" />
  <sodipodiNamedview
     id="namedview9726"
     pagecolor="#ffffff"
     bordercolor="#666666"
     borderopacity="1.0"
     inkscapeShowpageshadow="2"
     inkscapePageopacity="0.0"
     inkscapePagecheckerboard="0"
     inkscapeDeskcolor="#d1d1d1"
     showgrid="true"
     inkscapeZoom="0.59480855"
     inkscapeCx="44.55215"
     inkscapeCy="332.03961"
     inkscapeWindow-width="1920"
     inkscapeWindow-height="1009"
     inkscapeWindow-x="0"
     inkscapeWindow-y="1080"
     inkscapeWindow-maximized="1"
     inkscapeCurrent-layer="svg9724"
     showguides="true">
    <inkscapeGrid
       type="xygrid"
       id="grid9972"
       originx="0"
       originy="0" />
    <sodipodiGuide
       position="40,400"
       orientation="0,-1"
       id="guide292"
       inkscapeLocked="false" />
    <sodipodiGuide
       position="90,200"
       orientation="0,-1"
       id="guide294"
       inkscapeLocked="false" />
    <sodipodiGuide
       position="230,500"
       orientation="0,-1"
       id="guide296"
       inkscapeLocked="false" />
    <sodipodiGuide
       position="210,300"
       orientation="0,-1"
       id="guide298"
       inkscapeLocked="false" />
    <sodipodiGuide
       position="230,100"
       orientation="0,-1"
       id="guide300"
       inkscapeLocked="false" />
  </sodipodiNamedview>
  
  <g
     id="g10449"
     transform="matrix(0.95173205,0,0,0.95115787,13.901174,12.168794)"
     style="stroke-width:1.05103">
    <path
       id="path356"
       style="color:#000000;
       fill:#000000;
       stroke-linecap:round;
       -inkscape-stroke:none"
       fill="#FFF"
       d="M 447.70881 -12.781343 A 42.041451 42.041451 0 0 0 405.66786 29.260344 L 405.66786 50.301721 L 27.434765 50.301721 A 42.041302 42.041302 0 0 0 -14.606185 92.341354 A 42.041302 42.041302 0 0 0 27.434765 134.38304 L 405.66786 134.38304 L 405.66786 155.44906 A 42.041451 42.041451 0 0 0 447.70881 197.49075 A 42.041451 42.041451 0 0 0 489.74976 155.44906 L 489.74976 134.38304 L 573.78036 134.38304 A 42.041302 42.041302 0 0 0 615.82336 92.341354 A 42.041302 42.041302 0 0 0 573.78036 50.301721 L 489.74976 50.301721 L 489.74976 29.260344 A 42.041451 42.041451 0 0 0 447.70881 -12.781343 z M 143.0012 197.48869 A 42.041451 42.041451 0 0 0 100.9582 239.53038 L 100.9582 260.5697 L 27.447078 260.5697 A 42.041302 42.041302 0 0 0 -14.593872 302.61139 A 42.041302 42.041302 0 0 0 27.447078 344.65308 L 100.9582 344.65308 L 100.9582 365.7191 A 42.041451 42.041451 0 0 0 143.0012 407.76078 A 42.041451 42.041451 0 0 0 185.04215 365.7191 L 185.04215 344.65308 L 573.79472 344.65308 A 42.041302 42.041302 0 0 0 615.83567 302.61139 A 42.041302 42.041302 0 0 0 573.79472 260.5697 L 185.04215 260.5697 L 185.04215 239.53038 A 42.041451 42.041451 0 0 0 143.0012 197.48869 z M 279.59427 407.76078 A 42.041451 42.041451 0 0 0 237.55332 449.80042 L 237.55332 470.83974 L 27.447078 470.83974 A 42.041302 42.041302 0 0 0 -14.593872 512.88143 A 42.041302 42.041302 0 0 0 27.447078 554.92106 L 237.55332 554.92106 L 237.55332 575.98913 A 42.041451 42.041451 0 0 0 279.59427 618.02877 A 42.041451 42.041451 0 0 0 321.63522 575.98913 L 321.63522 554.92106 L 573.79472 554.92106 A 42.041302 42.041302 0 0 0 615.83567 512.88143 A 42.041302 42.041302 0 0 0 573.79472 470.83974 L 321.63522 470.83974 L 321.63522 449.80042 A 42.041451 42.041451 0 0 0 279.59427 407.76078 z " 
    />
  </g>
</svg>